<?xml version="1.0" encoding="utf-8"?>
<!-- Generator: Adobe Illustrator 21.1.0, SVG Export Plug-In . SVG Version: 6.00 Build 0)  -->
<svg version="1.1" id="Calque_1" xmlns="http://www.w3.org/2000/svg" xmlns:xlink="http://www.w3.org/1999/xlink" x="0px" y="0px"
	 viewBox="0 0 100 100" style="enable-background:new 0 0 100 100;" xml:space="preserve">
<style type="text/css">
	.st0{fill:#FFFFFF;}
</style>
<path class="st0" d="M95,50c0,24.9-20.1,45-45,45S5,74.9,5,50S25.1,5,50,5S95,25.1,95,50z M51.9,38.7c-3,5.7-4.2,12.4-5,12.2
	c-1.5-0.3-4.7-5.1-6.7-8.3c1.9,4.9,4.7,9.7,4,11.4c-0.5,1.2-4.6,1.9-7.9,3c3.7,0.2,7.7-1.2,8.5,0s-0.7,7.7-1.7,12.9
	c2.2-5.7,3.3-11,4.5-11.5c1.8-0.7,2.6,3,4.7,7.6c0,0-2.4-7.8-1.9-9.2c0.5-1.3,2.5-1,7.8-1.6c-3.8-0.9-6.8-0.2-8.3-2.4
	C49.1,51.6,50.9,42.8,51.9,38.7z M82.4,72.5c0.5-1.5,4.2-1.6,7.1-4.5c-1.7,0.8-6.3,2.8-6.3,2.1s5.8-3.3,7.6-7.1
	c-1.8,1.9-6.9,5.7-7.3,5.2c-0.4-0.5,2-3.7,2.5-8.2c-1.2,3-4.2,8.4-5.1,8.3c-0.6-0.1-0.5-4.5-2.2-8.3c0.4,3.6,0.8,8.7,0,9.2
	c-1.1,0.8-10.2-5.3-10.2-5.3c4,4,8.6,7.2,8,8.8c-0.4,1.1-7.5,0.5-14.7-1.2c6.5,3,14.1,2.9,14.8,3.7s-2.1,6.9-4.3,11
	c4-4,5.5-10.3,6-10.2s1.1,2.4,1,5.5c1.1-2.5,1.1-5.5,1.4-6.2s1.5,0,3.2,1.3C84.1,76.5,81.9,73.9,82.4,72.5z M61.3,17.3
	c-2.8,4.9-6.9,13.5-8.4,18.9C56.2,31.3,59.6,23.1,61.3,17.3z M72.9,33.8c-0.6,8.8-0.4,15.7-3.2,26.6C73.9,51.7,74.7,41.7,72.9,33.8z
	 M67.2,78.6C64.1,83,58.9,87.5,54.5,91C59.6,89,65.1,84,67.2,78.6z M21.3,27.5c-3.5,3.2-7.1,11.8-7.1,15.6
	C16.2,37.8,18.9,32,21.3,27.5z M44.5,10.4c-6.2,2.7-11.1,8-14.9,13.7C34.9,18.5,39.9,14.3,44.5,10.4z M53.9,8.2
	c-2.1,0.9-5.3,2.8-8.1,5c4.1-2,8.4-4.2,11.7-4.5c-3.5,3.8-7.2,9.6-9.7,15.6c4.5-5.1,10-16.4,14.1-14.4c2.7,0.1,3.9,8.5,4.2,12.7
	c0.8-8.2-0.2-9.4,1.6-8.4s6.6,8.3,8.8,17.4c-0.6-7.5-3.8-14.1-6-17.6S59.5,5.7,53.9,8.2z M47.2,53.4c-0.9,0-1.7,0.7-1.7,1.7
	s0.7,1.7,1.7,1.7s1.7-0.7,1.7-1.7S48.2,53.4,47.2,53.4z M79,71.3c-0.7,0.8-0.9,1.9-0.4,2.3c0.5,0.5,1.5,0.2,2.3-0.6
	c0.7-0.8,0.9-1.9,0.4-2.3C80.7,70.2,79.7,70.5,79,71.3z M37.7,89.5c-3.2-1.1-5.2-8.9-5.5-13c-0.7,8.3,0.3,9.4-1.5,8.4
	c-1.8-0.9-6.7-8.3-8.9-17.3c0.7,7.5,3.9,14.1,6.1,17.6c2.3,3.5,11,8.2,16.6,5.6c2.1-1,4.1-2.2,8-5.1C43.7,90.1,40.5,90.4,37.7,89.5z
	 M88.8,43c0.3-4.2-2.4-11.8-4.7-14.2C86,33.4,87.7,38.6,88.8,43z"/>
</svg>
