<?xml version="1.0" encoding="utf-8"?>
<!-- Generator: Adobe Illustrator 21.1.0, SVG Export Plug-In . SVG Version: 6.00 Build 0)  -->
<svg version="1.1" id="Calque_1" xmlns="http://www.w3.org/2000/svg" xmlns:xlink="http://www.w3.org/1999/xlink" x="0px" y="0px"
	 viewBox="0 0 100 100" style="enable-background:new 0 0 100 100;" xml:space="preserve">
<style type="text/css">
	.st0{fill:#FFFFFF;}
</style>
<path class="st0" d="M24.2,71.9c2.4,2.5,4.8,5.8,2.9,7.5s-5.7-2.2-6.9-3.9s-3.1-4.5-2.1-5.6S22.4,70,24.2,71.9z"/>
<path class="st0" d="M26.3,71.1c1.7,1,4.2,1.7,5.6-0.2s0.2-3.9-1.9-5.4s-5-1.4-5.8-0.2S23.2,69.3,26.3,71.1z"/>
<path class="st0" d="M38.8,70.7c1.9-0.3,3-1.3,2.7-3.2s-2.4-2.8-4.2-2.2s-2.6,2.1-2.2,3.2S37.2,70.9,38.8,70.7z"/>
<path class="st0" d="M50.2,67.7c1.9-0.5,3.4-0.9,3.2-2.9c-0.1-1.6-2.3-2-4.2-1.6s-2.3,1.9-2.2,3S49.2,68,50.2,67.7z"/>
<path class="st0" d="M88.9,33.9c0.6,1.8,0.6,3.1-0.2,3.6s-1.7-1.3-2.4-2.6s-0.4-2.8,0.1-3.1S88.3,32.3,88.9,33.9z"/>
<path class="st0" d="M90.9,46.5c0.3,2.4-0.4,4.2-1.3,4.2s-2.8-1.6-3.1-4.6s0.4-4,1.4-4.1S90.5,43.7,90.9,46.5z"/>
<path class="st0" d="M86.2,59.2c0.4,2-0.6,2.6-1.4,2.8s-1.8-1.2-2-2.9s0.7-2.4,1.4-2.4S85.9,57.7,86.2,59.2z"/>
<path class="st0" d="M95,50c0,24.9-20.1,45-45,45S5,74.9,5,50S25.1,5,50,5S95,25.1,95,50z M93.3,50c0-9.1-2.8-17.5-7.6-24.5
	C85.8,30,84.9,36,78,29.4c-1.4,6.4,2.3,13.1-5.1,11.8c-7.4-1.3-1.8-4.1,0.2-4c-3.3-2.4-6.7,0.5-7.6,0.4c-0.9-0.1-2.3-1.9-1.6-4.8
	c-3.4-0.8-5.8,2-11.1-1.7c0.1,0.3,2,4.4,5.5,6.2c3.6,1.9,8.9,11.2,0,10.9c0,0,3.4,7.1-2.6,7.8c-6.1,0.8-5.1-0.9-9.1,0.4
	c-3.9,1.4-2.2,3.5-5.7,4.4c-3.6,0.9-7.1-0.3-10.4-2.8c-3,1.2-7.8,1.8-4.9-7.5c-3.9-2-7.6,4.7-6.4-8c0,0-9.3,15.2-6.8-4.4
	c-2.3,2.8-4.4,5.4-5.8,11c0,0.3,0,0.6,0,0.9c0,14.1,6.8,26.7,17.2,34.6c-0.8-1.6-1.4-3.3-1.6-5c1.8,1.6,5.4,2.1,6.3,0.9
	c0.9-1.1,0.6-4.1,0-5.9c1.4,0.8,3.9,1.2,6.4-3.2c2.1,1.3,6.1,1.9,7.8-2.1c1.8,0.4,3,0,3.9-0.5c1.2,0.7,8.7,1.9,11.6-5.1
	c1.7-3.5,4.7-2.6,6.6-5.5c1.6-2.5,7.9,1.6,2.9,3.5c-5.1,1.9-5.3,3.8-5.4,5.2c3.3-2.8,7.4-3.3,8.7-0.6c1.2,2.7,2.8,0.6,4-0.7
	c1.2-1.3,9.7,3.9,5.3,15.3C88.3,73.2,93.3,62.2,93.3,50z M74.3,79.4c-1.1,2-1.2,2.7-0.8,3.1s2.1,0,3.2-1s1.7-2.9,0.9-3.3
	S74.8,78.6,74.3,79.4z M64.4,71.9c-1.1,1.9-1.2,3.8-0.6,4.4s3.2,0.4,4.4-1s1-3-0.1-3.8S65,71,64.4,71.9z M12.6,32.9
	C12,35.5,12,37.2,13,37.4s1.9,0,2.6-2s0.4-3.8-0.5-4S12.8,31.7,12.6,32.9z M19.9,29.4c-1.4,3-1.4,7.1,0.9,8.4s5.6,1,7.8-3.2
	s0.9-7.7-1.8-8.4S21.4,26.3,19.9,29.4z M51.1,15.4c-0.6,2,2.4,3.9,4.4,4.5s5.2,0.2,5.8-2.2s-2.7-3.7-4.8-4.5
	C54.9,12.6,51.8,13.4,51.1,15.4z M77.4,27.5c0.6,1.4,2.6,3,3.8,2.4s0.8-2.7,0-4.2s-2.6-3.1-3.9-2.2S77.4,27.5,77.4,27.5z M70.6,26.9
	c-1.4,0.9-1.5,3.3-0.3,5.8s3.3,3.6,5.4,2.6s1-5.1-0.1-6.9C74.7,26.6,72,26,70.6,26.9z M55.2,40.9c-1,1-2.1,2.6-1.2,3.7
	s2.2,1.6,3.3,0.7s1.6-2.1,0.7-3.5S55.5,40.6,55.2,40.9z"/>
</svg>
