<?xml version="1.0" encoding="utf-8"?>
<!-- Generator: Adobe Illustrator 21.1.0, SVG Export Plug-In . SVG Version: 6.00 Build 0)  -->
<svg version="1.1" id="Calque_1" xmlns="http://www.w3.org/2000/svg" xmlns:xlink="http://www.w3.org/1999/xlink" x="0px" y="0px"
	 viewBox="0 0 100 100" style="enable-background:new 0 0 100 100;" xml:space="preserve">
<style type="text/css">
	.st0{fill:#FFFFFF;}
</style>
<path class="st0" d="M95,50c0,24.9-20.1,45-45,45S5,74.9,5,50S25.1,5,50,5S95,25.1,95,50z M66.7,90c1.6-1.3,2.9-3,4-5.2
	c4.8-10.3,8.2-10,13.6-11c1-0.2,1.8-0.4,2.4-0.7c1-1.6,1.9-3.2,2.7-5c0-0.4,0-0.8-0.1-1.2c-0.2-3.2-0.8-4.2,1.5-5.6
	c0.7-0.5,1.2-1,1.4-1.5c0,0,0,0,0,0c0-0.1,0-0.1,0.1-0.2c0.1-0.9-0.6-1.9-2.3-3c-3-1.8-1.8-7.8,0.2-13.2c0.8-2.3,0.9-5.1,0.6-8
	c-6-16.7-22.7-29-40.8-28.7c-7.6,0.5-13.6,3-17.8,5.8s-8.6,8.9-4,11.7c5.8,3.5,10.7-8.5,12,2.5c1.1,9.3-4.4,7.3-5.7,11.7
	c-1.2,4.4,0.3,11.7,5.5,13.1c5.4,1.5,9.2-0.8,11.2-5.4c6.5,2.8,29.8,11.5,29,15.6c-1.3,6.8-42.3,2.6-50.1,1.6
	c-7.3-0.9-10.8,6.6-6.9,12.3C34,90.1,49.1,95.7,66.7,90z"/>
<ellipse class="st0" cx="43" cy="45" rx="7.3" ry="5.9"/>
<path class="st0" d="M65,11.3c2.5,1.1,4.3,2.9,3.7,3.8c-0.6,0.9-2.6,1.2-6-0.5s-3.4-2.7-3-3.4S63,10.5,65,11.3z"/>
<path class="st0" d="M43.5,77.7c1.3,0.4,2.2,1.2,1.9,2.2s-1.5,1.1-2.7,0.7s-1.6-1.3-1.5-2.1S42.3,77.3,43.5,77.7z"/>
<path class="st0" d="M49.2,67.9c2.2,0.7,2.8,3.2,2.1,4.5s-2.8,2-4.8,1s-2.1-2.7-1.6-3.8S47.1,67.2,49.2,67.9z"/>
<path class="st0" d="M33.8,76.8c1.3,0.7,1.9,2.2,1.4,2.8s-2.3,0.5-3.3-0.3c-1-0.8-1.4-1.8-0.9-2.5C31.5,76.2,32.8,76.2,33.8,76.8z"
	/>
<path class="st0" d="M35.1,73.7c0.9,0.5,2,0.5,2.5,0s0.5-1.9-0.8-2.6s-2.2-0.4-2.6,0.2S34.2,73.2,35.1,73.7z"/>
<path class="st0" d="M59.5,79.2c1.1-0.3,1.9,0.4,2,0.9s-0.8,1.4-2.1,1.6s-1.9-0.5-1.9-1S58.3,79.5,59.5,79.2z"/>
<path class="st0" d="M36.6,16.1c-0.6,0.7-1.3,1.4-0.7,1.9c0.4,0.3,1.6,0.2,2.3-0.5s1.2-1.6,0.6-2C38.4,15.3,37.2,15.5,36.6,16.1z"/>
<path class="st0" d="M56.6,14c0.8,0.4,1.3,1,0.9,1.5c-0.5,0.5-1.2,0.6-2.3,0.1c-1-0.5-1.3-1.1-0.9-1.5C54.7,13.7,55.9,13.6,56.6,14z
	"/>
<path class="st0" d="M56.1,22.1c1.3,0.6,2,2.2,1,3.1c-0.9,0.9-2.1,0.9-3.1,0.3s-1.5-2-1-2.8C53.6,21.9,55,21.6,56.1,22.1z"/>
<path class="st0" d="M47.3,25.7c0.8,0,1.7,0.6,1.6,1.6s-1.5,1.4-2,1.2c-0.6-0.2-1.3-0.6-1.3-1.5C45.5,26.1,46.6,25.7,47.3,25.7z"/>
<path class="st0" d="M79.2,38c0.3,1.2-0.2,2.3-0.9,2.5s-1.9-0.7-2.2-1.8s-0.4-2.5,0.7-2.6C77.8,35.9,79,36.9,79.2,38z"/>
</svg>
