<?xml version="1.0" encoding="utf-8"?>
<!-- Generator: Adobe Illustrator 21.1.0, SVG Export Plug-In . SVG Version: 6.00 Build 0)  -->
<svg version="1.1" id="Calque_1" xmlns="http://www.w3.org/2000/svg" xmlns:xlink="http://www.w3.org/1999/xlink" x="0px" y="0px"
	 viewBox="0 0 100 100" style="enable-background:new 0 0 100 100;" xml:space="preserve">
<style type="text/css">
	.st0{fill:#FFFFFF;}
</style>
<ellipse class="st0" cx="77.8" cy="65.2" rx="5.1" ry="4.1"/>
<path class="st0" d="M95,50c0,24.9-20.1,45-45,45S5,74.9,5,50S25.1,5,50,5S95,25.1,95,50z M86.6,26.8c-21.4-4.7-27.6-2.6-45-2
	c-11,0.4-13.9-1.4-28.2,2c-1,1.4-1.7,2.6-2.3,4.2c8.9-1.8,26.6-1.1,42.3-1.1c14.9,0,27.9-0.8,35.6,1.1
	C88.3,29.5,87.6,28.2,86.6,26.8z M90,33.3c-7.8-2.1-21.3-1.3-36.4-1.4c-16.6-0.1-34.8-0.7-43.6,1.4c-0.5,1.2-1.1,2.5-1.4,3.9
	c15.7-3.1,26.1-1.1,42.8-1c16.4,0.1,28.9-1.9,40,1C91.1,36,90.5,34.3,90,33.3z M92.9,44.1c-9.5-2.3-11,0.4-19.3-0.1
	c-7.3-0.4-15.9-1.7-24.8-1.6c-5.1,0.1-9.8,1-14.6,1.1C22.8,43.9,13,42.7,7.1,44.1C6.8,46.2,6.7,48,6.7,50c0,2,0,4,0.4,5.8
	c19.7-3.7,66.1-4,85.9,0c0.3-2.4,0.4-3.8,0.4-5.8C93.3,48,93.2,46.2,92.9,44.1z M19,80.2c1.5,1.7,2.6,2.6,4.2,3.8
	c12.7-1.7,41-2.1,53.7,0c1.8-1.4,2.8-2.2,4.2-3.8c-11.5-2.4-27.9-0.3-40-0.3C28.6,79.9,24.9,79.2,19,80.2z M9.6,65.6
	c1.4,3.4,2.8,6,4.2,8.2c17.1-3,55.3-3.2,72.4,0c1.9-2.9,3-5.2,4.2-8.2c-6.5-0.3-5.6-5.4-11.4-6.2c-6-0.8-6.8,3.5-10.7,3.3
	C61,62.4,53,63.9,44.9,64.1C30.2,64.3,26.1,61.4,9.6,65.6z M27.5,75.9c-0.9-0.3-1.8,0-1.9,0.7c-0.2,0.6,0.4,1.4,1.3,1.6
	c0.9,0.3,1.8,0,1.9-0.7C29,76.9,28.4,76.2,27.5,75.9z M36.6,76.2c-0.9,0-1.6,0.4-1.6,1s0.7,1,1.6,1s1.6-0.4,1.6-1
	S37.5,76.2,36.6,76.2z M45.5,75.7c-1,0-1.8,0.5-1.8,1.2s0.8,1.2,1.8,1.2s1.8-0.5,1.8-1.2S46.5,75.7,45.5,75.7z M61.9,75.9
	c-0.7,0.1-1.2,0.5-1.1,1c0,0.5,0.6,0.8,1.3,0.8c0.7-0.1,1.2-0.5,1.1-1S62.5,75.8,61.9,75.9z M35.1,20.2c-0.8,0.1-1.4,0.5-1.4,1.1
	c0,0.6,0.7,1,1.5,0.9s1.4-0.5,1.4-1.1C36.5,20.5,35.8,20.1,35.1,20.2z M57.6,20.4c-1-0.1-1.8,0.4-1.9,1c0,0.6,0.7,1.2,1.7,1.3
	c1,0.1,1.8-0.4,1.9-1S58.6,20.5,57.6,20.4z M46.6,18.8c-0.6,0-1.1,0.3-1.1,0.8s0.5,0.8,1.1,0.8s1.1-0.3,1.1-0.8S47.2,18.8,46.6,18.8
	z M45,14.4c-0.7,0-1.2,0.3-1.2,0.8s0.6,0.8,1.2,0.8s1.2-0.3,1.2-0.8S45.7,14.4,45,14.4z"/>
</svg>
