<?xml version="1.0" encoding="utf-8"?>
<!-- Generator: Adobe Illustrator 21.1.0, SVG Export Plug-In . SVG Version: 6.00 Build 0)  -->
<svg version="1.1" id="Calque_1" xmlns="http://www.w3.org/2000/svg" xmlns:xlink="http://www.w3.org/1999/xlink" x="0px" y="0px"
	 viewBox="0 0 100 100" style="enable-background:new 0 0 100 100;" xml:space="preserve">
<style type="text/css">
	.st0{fill:#FFFFFF;}
</style>
<path class="st0" d="M95,49.5c0,2-10.5,3.7-25.8,4.5C67.4,62.6,59.8,69,50.6,69c-9.1,0-16.8-6.4-18.6-15c-15.9-0.8-27-2.5-27-4.5
	c0-2,11.2-3.8,27.3-4.5c2.2-8.1,9.6-14,18.3-14c8.8,0,16.2,5.9,18.4,14C84.3,45.8,95,47.5,95,49.5z M41.3,34.2
	c4.8-0.5,14.1-0.5,18.8,0.1c-2.8-1.7-6-2.7-9.5-2.7C47.2,31.7,44,32.6,41.3,34.2z M36.8,38c6.8-1.1,21.2-1.3,27.9,0.3
	c-0.8-0.9-1.7-1.8-2.6-2.5c-5.4-0.8-18.8-0.6-22.6-0.3C38.5,36.2,37.6,37,36.8,38z M33,44.9c5.2-0.2,11-0.4,17-0.4
	c6.5,0,12.7,0.2,18.2,0.4c-0.3-1.1-0.7-2.2-1.2-3.2c-8-1.1-25.7-1.2-32.7-0.2C33.8,42.6,33.3,43.8,33,44.9z M63,63.5
	c-4.9-0.8-20.9-0.7-25-0.2c1.2,1.1,2.5,2.1,3.9,2.9c3.5-0.2,13.3-0.4,17.1,0.1C60.5,65.5,61.8,64.6,63,63.5z M66.3,59.4
	C58,57.5,40.9,58,34.9,59.3c0.7,1.3,1.6,2.4,2.6,3.4c4.8-0.8,21-0.9,26.1,0.1C64.6,61.9,65.6,60.7,66.3,59.4z M67.3,57.5
	c-6.9-1.9-26.8-1.8-33.5-0.1c0.2,0.5,0.4,0.9,0.7,1.3c6.8-1.6,25.3-2,32.2,0C66.9,58.4,67.1,57.9,67.3,57.5z M68.9,50
	c0-0.6,0-1.2-0.1-1.8c-4.5-0.6-11.2-1-18.8-1c-6.9,0-13.2,0.3-17.7,0.8c-0.1,0.6-0.1,1.3-0.1,1.9c0,1.5,0.2,3,0.5,4.3
	c8.2-2.6,27.7-2.5,35.6,0C68.8,53,68.9,51.5,68.9,50z M31.6,50c0-0.6,0-1.2,0.1-1.8c-3.8,0.5-6.1,1.1-6.1,1.8s2.3,1.3,6.1,1.8
	C31.6,51.2,31.6,50.6,31.6,50z M69.6,50c0,0.5,0,1.1-0.1,1.6c3.1-0.5,4.9-1,4.9-1.6s-1.8-1.2-4.9-1.6C69.6,48.9,69.6,49.4,69.6,50z
	 M11.4,49.6c-0.1-2.9,29.1-4.1,38.6-4.1c9.2,0,38.5,0.8,38.6,4.1c0.1,2.4-19.3,3.6-19.3,3.6l-0.1,0.3c0,0,20.6-1.1,20.5-3.9
	c-0.1-3.5-27.2-4.5-39.8-4.4c-11.9,0-39.6,1.1-39.6,4.4c0,3,21.5,3.9,21.5,3.9l-0.1-0.3C31.8,53.2,11.5,52.2,11.4,49.6z M31.7,52.1
	c0,0-10.4-0.7-10.4-2.4c0-2.3,20.6-3.1,28.8-3.1c10.3,0,28.8,0.9,28.8,3.1c0,1.5-9.3,2.3-9.3,2.3l0,0.2c0,0,10.9-0.9,10.9-2.6
	c0-2.5-19.8-3.3-30.3-3.3c-8.2,0-30.2,0.8-30.3,3.3c0,1.7,12,2.7,12,2.7L31.7,52.1z"/>
<ellipse class="st0" cx="42.8" cy="61.3" rx="0.7" ry="0.5"/>
<ellipse class="st0" cx="51.9" cy="60.8" rx="0.6" ry="0.4"/>
<ellipse transform="matrix(0.9931 -0.117 0.117 0.9931 -6.7533 6.9502)" class="st0" cx="55.8" cy="61" rx="0.8" ry="0.6"/>
<ellipse transform="matrix(0.87 -0.493 0.493 0.87 -22.198 37.8025)" class="st0" cx="60.6" cy="61" rx="0.6" ry="0.4"/>
</svg>
