<?xml version="1.0" encoding="utf-8"?>
<!-- Generator: Adobe Illustrator 21.1.0, SVG Export Plug-In . SVG Version: 6.00 Build 0)  -->
<svg version="1.1" id="Calque_1" xmlns="http://www.w3.org/2000/svg" xmlns:xlink="http://www.w3.org/1999/xlink" x="0px" y="0px"
	 viewBox="0 0 100 100" style="enable-background:new 0 0 100 100;" xml:space="preserve">
<style type="text/css">
	.st0{fill:#FFFFFF;}
</style>
<path class="st0" d="M94.8,32.5c-1.5-3.5-12-2.5-26.4,1.7c-4.5-5.4-11.3-8.8-18.8-8.8c-13.6,0-24.6,11-24.6,24.6
	c0,0.8,0,1.6,0.1,2.4c-13.3,7.5-21.5,14.5-20,18c2.1,5.1,24,0.7,48.7-9.7C78.6,50.2,97,37.6,94.8,32.5z M29.8,64.5
	C36,63,44,60.3,52.4,56.7c8.5-3.6,16-7.4,21.4-10.8c-0.6-3.3-1.8-6.3-3.5-9c7.2-1.6,12.1-1.7,12.9,0.2c1.5,3.6-12.2,12.7-30.5,20.5
	c-18.4,7.8-34.5,11.2-36,7.6c-0.8-1.9,2.7-5.4,9-9.5C26.5,58.9,27.9,61.9,29.8,64.5z M53.6,60C29.3,70.3,7.9,74.8,5.9,70
	c-1.4-3.2,6.5-9.9,19.4-17.1c0.1,0.6,0.1,1.1,0.3,1.7c-8.6,5.2-13.7,9.9-12.6,12.4c1.7,4.1,19.7,0.4,40.2-8.3
	c20.5-8.6,35.7-19,34-23.1c-1-2.4-7.7-2.1-17.3,0.3c-0.3-0.5-0.7-0.9-1-1.3c13.9-4.1,23.9-5.1,25.3-1.8C96.1,37.5,78,49.7,53.6,60z"
	/>
<path class="st0" d="M74.1,51.7c-0.9,12.8-11.5,22.9-24.5,22.9c-6,0-11.6-2.2-15.8-5.8c6.3-1.9,13.2-4.4,20.4-7.5
	C61.5,58.2,68.3,54.9,74.1,51.7z"/>
</svg>
