<?xml version="1.0" encoding="utf-8"?>
<!-- Generator: Adobe Illustrator 21.1.0, SVG Export Plug-In . SVG Version: 6.00 Build 0)  -->
<svg version="1.1" id="Calque_1" xmlns="http://www.w3.org/2000/svg" xmlns:xlink="http://www.w3.org/1999/xlink" x="0px" y="0px"
	 viewBox="0 0 100 100" style="enable-background:new 0 0 100 100;" xml:space="preserve">
<style type="text/css">
	.st0{fill:#FFFFFF;}
</style>
<path class="st0" d="M95,50c0,24.9-20.1,45-45,45S5,74.9,5,50S25.1,5,50,5S95,25.1,95,50z M79.7,19.9c-0.7,0.3-1,1.5-0.5,2.7
	s1.5,1.8,2.2,1.5s1-1.5,0.5-2.7S80.4,19.6,79.7,19.9z M76.7,84.2c-7.8,3-22.3,4.5-34.7,4C48.8,90.8,68.2,90.6,76.7,84.2z M55.5,38.9
	c-1,0-1.9,0.4-1.9,1s0.8,1,1.9,1s1.9-0.4,1.9-1S56.5,38.9,55.5,38.9z M84.2,30.9c-1.7,1.9-4.5,3.8-6.7,4.9c4.9-1.3,6.9-0.4,8.7-1.7
	C87.3,33.3,86,28.9,84.2,30.9z M54.6,72.6c-14.4-0.2-7.9,4.3-0.9,4.4C59.9,77,68.7,72.8,54.6,72.6z M38.3,54.6
	c-1.4-0.8-4.1-2.3-5.9-3.7c1.5,0.5,3.5,0.7,8.5,0.4c-3.2-0.3-8.7-1.7-13-2.9C29.8,50.8,33.6,53.9,38.3,54.6z M55.9,62.2
	c-4.4-0.2-10.7-0.9-15.3-1.9C44.9,62.8,50.2,64,55.9,62.2z M58.8,60.8c3.3-2.4,0.8-4.2-2.8-6c2.9,0,14.8-1.2,19.3-3.6
	c-9.4,1.9-26.3,0.7-31.5,0.3C48.4,53,56.7,56.3,58.8,60.8z"/>
</svg>
