<?xml version="1.0" encoding="utf-8"?>
<!-- Generator: Adobe Illustrator 21.1.0, SVG Export Plug-In . SVG Version: 6.00 Build 0)  -->
<svg version="1.1" id="Calque_1" xmlns="http://www.w3.org/2000/svg" xmlns:xlink="http://www.w3.org/1999/xlink" x="0px" y="0px"
	 viewBox="0 0 100 100" style="enable-background:new 0 0 100 100;" xml:space="preserve">
<style type="text/css">
	.st0{fill:#FFFFFF;}
</style>
<path class="st0" d="M95,50c0,24.9-20.1,45-45,45S5,74.9,5,50S25.1,5,50,5S95,25.1,95,50z M87.1,42c-8.3,2.6-15.4,15.5-17.2,15.5
	c-3.3,0.1-2.7-13.3-17.6-12.5c-7.1,0.4-13.6,6-13.6,18c0,10.4,13.2,18.6,12.2,22.7c-0.6,2.4-6.5,6-21.5,2.6
	c6.1,3.3,13.2,5.2,20.7,5.2c9.8,0,18.8-3.3,26.1-8.7c-10.8,0.1-8.5-4.9-0.8-6.7C83.7,76,93.1,64,93.3,50C93.4,42.3,91,40.7,87.1,42z
	 M7.1,52.2c0,0.7,0.2,2.7,0.9,2.6s0.6-1.9,0.6-2.7c0-1.2-0.5-2.3-0.9-2.3C7.2,50,7.1,51.6,7.1,52.2z M10.4,62.5
	c0.8,2.1,2.2,2.2,2.7,1.9s0.9-1.9,0.2-3.8s-2-2.7-2.6-2.4C9.7,58.7,9.7,60.6,10.4,62.5z M27.2,66.9c-0.7,0.5-0.8,1.9-0.1,2.8
	s1.9,1.1,2.6,0.7c0.7-0.5,0.7-2,0.1-2.8C29,66.6,27.9,66.4,27.2,66.9z M34.8,39.2c-1.9-0.9-4.7,0.6-5.6,2.7s-0.9,5,1,6
	c1.9,1.1,4.6-0.2,5.8-2C37.5,43.3,36.7,40.1,34.8,39.2z M68.9,14.6c-0.2,0.7,0.7,1.8,1.9,2.3s2.2,0.2,2.4-0.3s-0.8-1.5-2-2.1
	C70.1,14.1,69.2,13.9,68.9,14.6z M72,35.4c-0.7,0.3-1.1,1.4-0.8,2.3s1.2,1.2,2,1s1.3-1.4,0.9-2.5C73.9,35.5,73,34.9,72,35.4z
	 M69,46.7c-0.4,0.3-0.8,0.7-0.5,1.6s1.2,0.8,1.7,0.5c0.6-0.4,0.7-1.1,0.4-1.7C70.1,46.4,69.4,46.4,69,46.7z"/>
</svg>
