<?xml version="1.0" encoding="utf-8"?>
<!-- Generator: Adobe Illustrator 21.1.0, SVG Export Plug-In . SVG Version: 6.00 Build 0)  -->
<svg version="1.1" id="Calque_1" xmlns="http://www.w3.org/2000/svg" xmlns:xlink="http://www.w3.org/1999/xlink" x="0px" y="0px"
	 viewBox="0 0 100 100" style="enable-background:new 0 0 100 100;" xml:space="preserve">
<style type="text/css">
	.st0{fill:#FFFFFF;}
</style>
<path class="st0" d="M93.8,49.7c0,13.7-6.5,26-16.5,33.8c-1.5,1.2-6.6,4.9-7.6,9.6c-1.5-1.5-2.1-3-2.2-3.9
	c-5.1,2.1-10.7,3.3-16.5,3.3c-7.8,0-15-2.1-21.3-5.7c0.2,0.9,0.9,2.2,1.9,3.5c-5.9-1.8-9.5-9-10.9-10.4C14.9,74.2,10.8,66.8,9,58.6
	c-0.8,0.6-1.3,0.8-2.5,1.2c1.5-5.8,1.5-8.6,1.5-10.1c0-3.6,1-8.2-3.1-5.1c0.7-3.9,4.7-6.7,6.4-11.5C17.9,17.7,33.2,6.9,51,6.9
	c10.4,0,19.9,3.7,27.3,9.8c2.1,1.7,9.4,8.5,6.8,1.5c6.6,4.5,2.7,9.3,4.1,12.2c1,2,3,3.4,5.8,4.9c-2.1,1.7-2.2,4.8-1.9,6.5
	C93.6,44.4,93.8,47,93.8,49.7z M51.6,49.3C54,51.8,61.2,50.1,64,52c-0.8-6.7-12-3.5-9.4-11.4C49.5,42.6,49.9,47.4,51.6,49.3z
	 M65.1,48.4c1.3-7.5-4.3-12.3-6.5-9C54.8,44.9,63.8,44.2,65.1,48.4z M47.9,46.1c-1.4-9.4,8.8-6.1,7-15.2
	C53.2,35.5,40.6,35.2,47.9,46.1z M58,35.7c3-0.7,4.7,0.2,7.4,2.3c-0.6-5.5-4.9-8.1-8.2-9.3C59,30.4,58.9,32.1,58,35.7z M43.9,31
	c-1.7,0-5.2,0.1-7.1,3.1c4.1-1.3,6.1,1.1,7.3,3.5c0.3-1.5,0.4-3.1,3-4.2s4.3-2.2,4.7-5.5C50.3,29.8,45.6,31,43.9,31z M43.3,42.2
	c-0.5-5.7-5.4-6.5-7.5-3.8c-2.4,3.1-1.4,8.7,2.8,11C36.4,44.8,39,37.5,43.3,42.2z M41.6,44c-2.6,2.5-0.4,6.3,0.3,8.1
	c-1.7,0.9-3.3,1.2-5.6,0.2c0.7,3.4,4.9,4.4,7.3,4c2.4-0.4,5-0.2,6.7,1.9c0.1-3.6-1-6.3-3.9-7.5S42.3,47.3,41.6,44z M52.3,64.8
	c9.3-3.1,10-10.2,0.4-11.4C56.6,55.8,56.2,60.4,52.3,64.8z M59.4,64.4c3.4,0.1,4.9-1,6.4-2.8c0.6,0.9,1.1,2.6,1.1,5
	c4.1-6.5,0.7-11.9-5.7-12.8C66,58.9,62.2,62.5,59.4,64.4z M45.5,65.1c3,1.9,5.7-2.9,1.4-5.7c-1.7-1.2-4.3-1.4-8.2,1.3
	C43.5,60.2,42.5,63.2,45.5,65.1z M29.8,51.3c-0.9,4.2,1.5,8.8,7.4,6.1c-7.3-1.8-1.8-9.7-7-14.3C30.7,46.8,30.6,47.9,29.8,51.3z
	 M39.5,29.4c-6.5-1.7-11,0.4-6.1,10C32.3,32.9,34.7,31,39.5,29.4z M48,20c0.4,4.3-2.4,6.4-5.9,6.4C47.5,31.6,53,23,48,20z
	 M53.7,26.3c2.5-1.4,4.7-0.8,8.6,1.3c-0.8-4.1-5.3-7.6-10.5-8C54.1,21.4,54.7,23.3,53.7,26.3z M67.8,35.9c0.2,1.9,0.3,4,4,7.4
	c1.9-8.5-2.6-11.7-6.9-13C66.6,31.9,67.6,34,67.8,35.9z M67.3,42.4c1.7,5.1,0,7.4,0.4,9.2s3.2,2.9,3.4,7.2c3-3.1,5.4-8.9,3.2-14.3
	c-0.2,3.1-1.8,4.3-2.7,5C71,47,69.9,44.3,67.3,42.4z M56.5,66.6c-3.1-0.3-6.9,2.2-6.5,7.2c4.7-6.3,10.8-1.1,14.1-7.4
	C61.8,67.3,59.6,66.9,56.5,66.6z M39.6,67.9c0.9,1.7,0.2,3.4-1.8,5.6c4.8,0.5,9.3-2.3,11.3-5.1c-1.9,0.2-4.7,1-6.6-2.1
	c-1.9-3.1-5.4-3.1-9.4-1.1C36.8,65.1,38.7,66.2,39.6,67.9z M26.2,60c-1,0.7-2.1,1-4.5,1.7c4,2.2,7.9,2.3,12.5-0.6
	c-5.1-0.8-7.6-5-8-8.8C24.6,54.9,24.8,57.6,26.2,60z M27.6,29.5c-7.5,6.9,0.1,15.5-0.8,19.9c2.2-3.1,1.3-8.4,0.8-10.3
	c1.6,0.4,2.8,1.3,4.1,2.8C30.6,34.8,26.4,35.6,27.6,29.5z M66.7,28.3c1.9,2,5.8,0.8,7.5,6.8c1.3-5.3-0.2-6.2-0.9-7.1
	c-0.7-0.9-3.4-1.4-4.1-2.2s-0.5-2.1-1.3-2.7c-0.8-0.7-1.6-1.5-6-1.9C66.1,23.5,64.8,26.2,66.7,28.3z M78.6,35.2
	c-4,0.8-5.6,4.8-3,7.9c2.6,3.1,2.9,3.8,2.5,6.3c3.8-2.8,5-7.1,2.2-8.8C76.9,38.7,76.8,37.2,78.6,35.2z M71,62.1
	c-0.9,4.2-4,8.9-8.9,10C68.5,74.6,73.4,69.8,71,62.1z M77.5,52c-0.5,3.4-2,6.5-4.2,8.3c1.1,2.7,1.4,5.1,1,7.5c2.9-2.8,3-5.2,2.6-7.3
	C78.8,58.5,79.1,54.9,77.5,52z M60.9,76.7c-0.8-4.7-5.4-4.4-8.1-1.9c-2.8,2.5-2.1,6.2,1,7.5C52.4,77.6,57.5,74,60.9,76.7z
	 M35.3,74.7c0.7,8.8,10.5,4.3,12.3-0.8C44,76.6,38.6,77.1,35.3,74.7z M31.9,73.6c5.2,0.6,5.9-4.8,2.3-5.6c-2.8-0.7-5.4,1.3-10.9-1.9
	C24.5,69.5,26.7,72.9,31.9,73.6z M22.8,58.5c-3.6-5.9,6-9.7-1.3-17.3C23.1,46.7,12.7,52.8,22.8,58.5z M34.2,20.1
	c-2.7,2.2-4.8,6-4.7,9.4c3.4-6,11.6-0.5,14-9.2C38.9,23.7,35,24.3,34.2,20.1z M39.3,10.4c-3.8,1.3-8.9,2.7-9.3,9.8
	c1.8-2.3,4.3-4.3,5.2-4.1c-0.4,4.6,5.5,7.1,7.8-0.8c-2.4,2-4.3,2.5-5.3,1.2C36.6,15.1,36.5,12.3,39.3,10.4z M18.1,24.8
	c2.3-2.7,4.7-0.8,7.2-3c2.4-2.1,1-3.4,3.1-6.7C24.8,17.6,22.1,20,18.1,24.8z M11.2,38.1c1.5-2,2.4-2.1,4.2-2.2
	c-0.7-2.6-0.4-4.5,0.5-7.9C14,30.7,12.4,34.3,11.2,38.1z M8.5,57c4.1-4.6,4-6.3,3.9-8.6c-0.1-2.7-1.1-3.9-2.3-5.2
	C9.8,47.1,10.9,50.9,8.5,57z M15.2,51c5.4-10.6,0.8-15.8-6.9-9.6C15,39.7,15.4,44.9,15.2,51z M28.2,21.7c-2.6,3.8-7,3.5-9.3,7.2
	s-0.3,8.2,1,10.3c-0.3-5.4,1.6-8.7,3.7-10.5C25.6,26.9,27.4,25.3,28.2,21.7z M48.8,8.6c-5.3-0.1-10.4,2.2-8.9,4.8
	c1.1,1.9,3.6,0.1,4.5-0.7C45.6,11.6,45.4,11.2,48.8,8.6z M58.2,19.1c-2.1-3.6-9.6-7.5-12.6-4.3c-2.9,3,0.7,5,3.4,3.4
	C50.7,17.2,55.4,16.8,58.2,19.1z M60.5,11.8c-4.9-5-9.3-3-12.2-0.2C50.9,10.3,56.2,10.5,60.5,11.8z M61,18.6
	c2.2,1.2,5.4,1.7,7.3-0.7c1.9-2.4-2.1-6.7-5.8-5.2c1.6,0.7,3.4,2.2,2,3.5s-5.7-3.3-10.4-3.1C58.2,14.6,59.5,17.8,61,18.6z M69,12.7
	c3.1,2.9,1.3,5.1,5.8,8.2C77.4,17,72.1,13.9,69,12.7z M76.3,29c1-7.1-5.4-6.3-6-10.9C67.1,26.7,74.6,23.8,76.3,29z M76.7,17.4
	c1,1.8,1,3.3,0.7,4.4c2.4,0.2,4.4,0.9,5.8,2C80.4,20.4,78,18.6,76.7,17.4z M77,33.2c2.6-2.8,5,1.5,5,1.5c0.6-4.7-0.6-9.4-4.4-11.2
	C79.7,26.4,78.4,30.3,77,33.2z M82.2,24.9c5.6,6.7-1,11.8,2,16c1-6.1,3.7-6,6.3-6.3c-2.1-1.2-3.7-2.5-3.9-3.4
	c-0.5-1.9,2-4.7,0.1-8.5C86.5,26.1,85.1,26.3,82.2,24.9z M86.6,43.2c0,3.9,3.3,4.5,3.1,11.7c1.1-1.7,2.5-4.6,2.3-7.1
	c-0.2-2.5-3-5.5-0.1-11.6C88,38.1,86.6,40.6,86.6,43.2z M84,44.1c-1.3,3.5-6.2,9.6-2.2,15c0.1-3.6,1.2-5.7,1.9-5.6
	c0.7,0.1,3,3.4,2.2,6.4C90.8,52.6,84.3,49.1,84,44.1z M92,54.3c-1.7,3.1-4.6,8.2-6.2,10.8c2.4-1,3.3-1.7,4.4-2.5
	C91,60.5,91.9,56,92,54.3z M79.7,60.8c0.2,4.8-1.8,9.1-4.2,11.1c5.6-0.8,9.7-4.4,8.4-12c-0.8,3.6-1.9,4.4-2.5,4.9
	C80.9,62.7,80.7,62.1,79.7,60.8z M88.4,67.2c-5.3,0.1-4.2,5.3-12.7,7.6c4,1.3,7,0.2,8.4-1C86.8,71.4,85.5,70,88.4,67.2z M73,70.7
	c-1.3,3.5-5,6.3-10.1,4.8c0.3,4,6.1,3.7,7.6,3.5s6-1,7.7,0.2c-1-3.2-4.6-3.2-5.9-3.4C73.2,74.2,73.2,72.3,73,70.7z M77.4,80.8
	c-8.7-1.3-8.3,3.3-12.6,7.6c1.8-0.4,3.1-1.6,4-2.2c-0.1,1,0,2.3,0.4,3.4c1.4-3,2.2-4.2,3.4-5.1C74.4,82.8,75.9,82.1,77.4,80.8z
	 M60.2,79.3c-3.5-2.6-6.7,2.5-2.7,4.7s6.8-0.2,8.6-2.8C64.8,81.5,62.9,81.3,60.2,79.3z M59,87.5c-1.1,0-2.8-0.6-4.2-2.9
	c-0.2,3.2-2.2,4.7-6.7,3.6c2.2,2.1,4.4,3,8.5,2.3c3.3-0.4,5.8-1.1,7.5-5.1C62,87.2,60.2,87.4,59,87.5z M14.6,52.6
	c-2.1,3-4.3,8.2-1.4,13.9c0.5-3.5,1.1-4.6,1.5-5.6c1.2,0.7,3.9,0.9,5.5,0.9C16.9,59.1,15.2,57.5,14.6,52.6z M16.3,64.2
	c0.8,2.4,0.5,6.1-0.1,7.8c1.4,2.2,3.2,4.7,4.3,5.6C21.2,72.5,19.6,66.6,16.3,64.2z M22.8,71.7c0.6,2.5-0.9,8.9,5,14.5
	c-2.7-5.9-0.5-8.9,3.6-9.5C27.7,76,25.3,75.5,22.8,71.7z M33.4,80.4c-0.7-2.5-5.8-1.2-5,1.8s4.4,4.9,10.5,4.6
	C35.6,85.4,34.1,82.8,33.4,80.4z M49.1,90.8c-1.9-0.6-3.4-1.4-4.4-3.4c-1.1,0.3-4,1.3-6.9,1.3C40.2,89.8,44.9,90.5,49.1,90.8z
	 M45.1,84.5c0.8,1.7,3.4,2.6,7.8,1.2c-3.4-0.5-4.9-4-4.5-7.5c-3.5,4.3-7.8,4.8-11.8,3.8C39.1,85.8,42.2,85.6,45.1,84.5z"/>
</svg>
